SPORT: Rugby Highlights - LV= Cup
On: itv
Date: Sunday 17th March 
Time: 23:15 to 00:15 

Martin Bayfield presents action from the LV= Cup final, played at Sixways stadium in Worcester.The Anglo-Welsh tournament has been dominated by teams from the English Aviva Premiership this season, and the four semi-finalists are Harlequins, Bath, Sale and Saracens.

[442Mb, 45mins, 720x416[16:9], 1227Kbps, x264/mp4; Audio: AAC-LC, 128Kbps]

General
Complete name: 2013.03.17.LV.Cup.Highights.pdtv.x264.mp4
Format : MPEG-4
Format profile : Base Media
Codec ID : isom
File size: 442 MiB
Duration : 45mn 37s
Overall bit rate mode: Variable
Overall bit rate : 1 355 Kbps

Video
ID : 1
Format : AVC
Format/Info: Advanced Video Codec
Format profile : High@L3.1
Format settings, CABAC : Yes
Format settings, ReFrames: 5 frames
Codec ID : avc1
Codec ID/Info: Advanced Video Coding
Duration : 45mn 37s
Bit rate : 1 227 Kbps
Maximum bit rate : 3 199 Kbps
Width: 720 pixels
Height : 416 pixels
Display aspect ratio : 1.731
Frame rate mode: Constant
Frame rate : 25.000 fps
Color space: YUV
Chroma subsampling : 4:2:0
Bit depth: 8 bits
Scan type: Progressive
Bits/(Pixel*Frame) : 0.164
Stream size: 400 MiB (91%)

Audio
ID : 2
Format : AAC
Format/Info: Advanced Audio Codec
Format profile : LC
Codec ID : 40
Duration : 45mn 37s
Bit rate mode: Variable
Bit rate : 124 Kbps
Maximum bit rate : 132 Kbps
Channel(s) : 2 channels
Channel positions: Front: L R
Sampling rate: 48.0 KHz
Compression mode : Lossy
Stream size: 40.4 MiB (9%)
Language : English